<?xml version="1.0" encoding="utf-8"?>
<!-- Generator: Adobe Illustrator 24.3.0, SVG Export Plug-In . SVG Version: 6.00 Build 0)  -->
<svg version="1.1" id="Layer_1" xmlns="http://www.w3.org/2000/svg" xmlns:xlink="http://www.w3.org/1999/xlink" x="0px" y="0px"
	 viewBox="0 0 1289 720" style="enable-background:new 0 0 1289 720;" xml:space="preserve">
<style type="text/css">
	.st0{fill:#F15A24;}
</style>
<g>
	<polygon class="st0" points="1022.92,337.29 1039.73,347 1022.92,356.71 	"/>
	<path d="M244.5,349c0-28.78,22.41-50.08,52.99-50.08c30.44,0,52.99,21.17,52.99,50.08c0,28.91-22.55,50.08-52.99,50.08
		C266.91,399.08,244.5,377.78,244.5,349z M327.78,349c0-18.4-13.01-30.99-30.3-30.99c-17.29,0-30.3,12.59-30.3,30.99
		s13,30.99,30.3,30.99C314.78,379.99,327.78,367.4,327.78,349z"/>
	<path d="M457.27,300.58l-41.92,96.84h-22.14l-41.78-96.84h24.21l29.47,69.17L435,300.58H457.27z"/>
	<path d="M540.27,379.44v17.98h-74.98v-96.84h73.18v17.98h-50.91v21.03h44.96v17.43h-44.96v22.41H540.27z"/>
	<path d="M619.81,397.42l-18.68-26.98h-1.11h-19.51v26.98h-22.41v-96.84h41.92c25.87,0,42.06,13.42,42.06,35.14
		c0,14.53-7.33,25.18-19.92,30.57l21.72,31.13H619.81z M598.78,318.84h-18.26v33.76h18.26c13.7,0,20.61-6.36,20.61-16.88
		C619.39,325.07,612.48,318.84,598.78,318.84z"/>
	<path d="M725.22,347.48h20.47v39.29c-10.65,8.02-25.32,12.31-39.15,12.31c-30.44,0-52.85-20.89-52.85-50.08
		s22.41-50.08,53.26-50.08c17.02,0,31.13,5.81,40.53,16.74l-14.39,13.28c-7.06-7.47-15.22-10.93-25.04-10.93
		c-18.81,0-31.68,12.59-31.68,30.99c0,18.12,12.87,30.99,31.4,30.99c6.09,0,11.76-1.11,17.43-4.15V347.48z"/>
	<path d="M987.36,359.38l-13,13.56v24.49h-22.27v-96.84h22.27v45.24l42.89-45.24h24.9l-40.12,43.16l42.47,53.68h-26.15
		L987.36,359.38z"/>
	<g>
		<polygon class="st0" points="913.66,379.44 810.7,379.44 792.72,397.42 933.66,397.42 		"/>
		<polygon class="st0" points="766.44,379.44 766.44,397.42 779.53,397.42 797.51,379.44 		"/>
		<polygon class="st0" points="889.56,300.58 871.58,318.56 911.86,318.56 931.86,300.58 		"/>
		<polygon class="st0" points="833.12,357.02 887.46,357.02 887.46,339.59 850.55,339.59 		"/>
		<polygon class="st0" points="766.44,300.58 766.44,318.56 858.38,318.56 876.37,300.58 		"/>
		<polygon class="st0" points="766.44,339.59 766.44,357.02 819.92,357.02 837.35,339.59 		"/>
	</g>
</g>
</svg>
