<?xml version="1.0" encoding="utf-8"?>
<!-- Generator: Adobe Illustrator 24.3.0, SVG Export Plug-In . SVG Version: 6.00 Build 0)  -->
<svg version="1.1" id="Layer_1" xmlns="http://www.w3.org/2000/svg" xmlns:xlink="http://www.w3.org/1999/xlink" x="0px" y="0px"
	 viewBox="0 0 1280 720" style="enable-background:new 0 0 1280 720;" xml:space="preserve">
<style type="text/css">
	.st0{fill:#F15A24;}
	.st1{fill:#FFFFFF;}
</style>
<g>
	<polygon class="st0" points="1018.42,337.29 1035.23,347 1018.42,356.71 	"/>
	<path class="st1" d="M240,349c0-28.78,22.41-50.08,52.99-50.08c30.44,0,52.99,21.17,52.99,50.08c0,28.91-22.55,50.08-52.99,50.08
		C262.41,399.08,240,377.78,240,349z M323.28,349c0-18.4-13.01-30.99-30.3-30.99c-17.29,0-30.3,12.59-30.3,30.99
		s13,30.99,30.3,30.99C310.28,379.99,323.28,367.4,323.28,349z"/>
	<path class="st1" d="M452.77,300.58l-41.92,96.84h-22.14l-41.78-96.84h24.21l29.47,69.17l29.88-69.17H452.77z"/>
	<path class="st1" d="M535.77,379.44v17.98h-74.98v-96.84h73.18v17.98h-50.91v21.03h44.96v17.43h-44.96v22.41H535.77z"/>
	<path class="st1" d="M615.31,397.42l-18.68-26.98h-1.11h-19.51v26.98h-22.41v-96.84h41.92c25.87,0,42.06,13.42,42.06,35.14
		c0,14.53-7.33,25.18-19.92,30.57l21.72,31.13H615.31z M594.28,318.84h-18.26v33.76h18.26c13.7,0,20.61-6.36,20.61-16.88
		C614.89,325.07,607.98,318.84,594.28,318.84z"/>
	<path class="st1" d="M720.72,347.48h20.47v39.29c-10.65,8.02-25.32,12.31-39.15,12.31c-30.44,0-52.85-20.89-52.85-50.08
		s22.41-50.08,53.26-50.08c17.02,0,31.13,5.81,40.53,16.74l-14.39,13.28c-7.06-7.47-15.22-10.93-25.04-10.93
		c-18.81,0-31.68,12.59-31.68,30.99c0,18.12,12.87,30.99,31.4,30.99c6.09,0,11.76-1.11,17.43-4.15V347.48z"/>
	<path class="st1" d="M982.86,359.38l-13,13.56v24.49h-22.27v-96.84h22.27v45.24l42.89-45.24h24.9l-40.12,43.16l42.47,53.68h-26.15
		L982.86,359.38z"/>
	<g>
		<polygon class="st0" points="909.16,379.44 806.2,379.44 788.22,397.42 929.16,397.42 		"/>
		<polygon class="st0" points="761.94,379.44 761.94,397.42 775.03,397.42 793.01,379.44 		"/>
		<polygon class="st0" points="885.06,300.58 867.08,318.56 907.36,318.56 927.36,300.58 		"/>
		<polygon class="st0" points="828.62,357.02 882.96,357.02 882.96,339.59 846.05,339.59 		"/>
		<polygon class="st0" points="761.94,300.58 761.94,318.56 853.88,318.56 871.87,300.58 		"/>
		<polygon class="st0" points="761.94,339.59 761.94,357.02 815.42,357.02 832.85,339.59 		"/>
	</g>
</g>
</svg>
